<?xml version="1.0" standalone="no"?><!DOCTYPE svg PUBLIC "-//W3C//DTD SVG 1.1//EN" "http://www.w3.org/Graphics/SVG/1.1/DTD/svg11.dtd"><svg t="1714444853396" class="icon" viewBox="0 0 1024 1024" version="1.1" xmlns="http://www.w3.org/2000/svg" p-id="8798" xmlns:xlink="http://www.w3.org/1999/xlink" width="200" height="200"><path d="M488.530747 1024a460.965495 460.965495 0 1 1 140.19491-900.416646L597.405737 222.17697a357.34497 357.34497 0 1 0 232.727273 448.90505l98.572929 31.319919a460.675879 460.675879 0 0 1-396.898262 319.508687q-21.783273 2.110061-43.27693 2.089374z" fill="#0180FF" p-id="8799"></path><path d="M490.785616 643.899475h-109.226667l-23.665777 86.491798h-68.266667l107.88202-336.844283h79.189334l108.337131 336.844283h-70.542222z m-14.480808-52.337778l-10.012444-36.884687c-10.467556-35.043556-19.569778-73.728-29.582223-110.136889h-1.820444c-8.647111 36.864-18.618182 75.093333-28.672 110.136889l-10.012444 36.884687z" fill="#0180FF" p-id="8800"></path><path d="M633.690505 393.54699h67.356444v336.844283h-67.356444z" fill="#0180FF" p-id="8801"></path><path d="M768.113778 72.40404h227.555555v82.747475h-227.555555z" fill="#FBB03B" p-id="8802"></path><path d="M840.517818 227.555556V0h82.747475v227.555556z" fill="#FBB03B" p-id="8803"></path></svg>