<?xml version="1.0" standalone="no"?><!DOCTYPE svg PUBLIC "-//W3C//DTD SVG 1.1//EN" "http://www.w3.org/Graphics/SVG/1.1/DTD/svg11.dtd"><svg t="1714452687964" class="icon" viewBox="0 0 1024 1024" version="1.1" xmlns="http://www.w3.org/2000/svg" p-id="7017" xmlns:xlink="http://www.w3.org/1999/xlink" width="200" height="200"><path d="M747.6 871.5H276.4c-70.7 0-129.6-58.9-129.6-129.6V386.7c0-70.7 58.9-129.6 129.6-129.6h471.1c70.7 0 129.6 58.9 129.6 129.6V742c0 72.6-56.9 129.5-129.5 129.5zM276.4 335.6c-27.5 0-51 23.6-51 51V742c0 27.5 23.6 51 51 51h471.1c27.5 0 51-23.6 51-51V386.7c0-27.5-23.6-51-51-51H276.4z m0 0M298.3 930.5c0-15.7 13.7-29.4 29.4-29.4l368.5-2c15.7 0 29.4 13.7 29.4 29.4S711.9 958 696.2 958l-368.5 2c-15.6-0.1-29.4-11.9-29.4-29.5z" fill="#376DF4" p-id="7018"></path><path d="M304.796 159.156l55.018-21.022L420.06 295.81l-55.018 21.022z" fill="#376DF4" p-id="7019"></path><path d="M267.4 144c11.6 30.4 45.6 45.6 76 34 30.4-11.6 45.6-45.6 34-76-11.6-30.4-45.6-45.6-76-34-30.3 11.6-45.6 45.6-34 76z m0 0" fill="#376DF4" p-id="7020"></path><path d="M603.988 295.866l60.245-157.676 55.018 21.021-60.244 157.676z" fill="#376DF4" p-id="7021"></path><path d="M756.6 144c11.6-30.4-3.6-64.4-34-76-30.4-11.6-64.4 3.6-76 34-11.6 30.4 3.6 64.4 34 76 30.3 11.6 64.3-3.6 76-34z m0 0" fill="#376DF4" p-id="7022"></path><path d="M595.3 693.7c-10 0-19.2-5.9-23.3-15.1l-80.5-180.2-0.1-0.1c-1-2.6-3.3-4.6-6.9-6.3-4.4-2-9.1-3-14.1-3-4.9 0-9.6 1-14.1 3-3.7 1.6-5.9 3.7-6.9 6.2l-1.6 4.2h-0.6l-78.7 176.2c-4.1 9.2-13.2 15.1-23.3 15.1h-0.2c-8.7 0-16.7-4.3-21.4-11.6-4.7-7.3-5.4-16.4-1.9-24.3L403 476.3l0.8-1.5c5.1-10.3 12.4-18.9 21.5-25.5 9.1-6.7 19.1-11 29.7-12.8 5.1-0.9 10.4-1.3 15.5-1.3s10.3 0.4 15.4 1.3c10.5 1.8 20.4 6.1 29.5 12.8 9.1 6.7 16.4 15.2 21.8 25.4l0.8 1.6 81 181.6c3.5 7.9 2.8 17-1.9 24.3-4.7 7.3-12.7 11.6-21.4 11.6h-0.4z m-125-24.6c-9.8 0-18.4-3.5-25.4-10.5s-10.5-15.6-10.5-25.5c0-4.8 0.9-9.5 2.8-14 1.9-4.4 4.5-8.3 7.8-11.5 3.3-3.1 7.1-5.6 11.5-7.5 4.4-1.9 9.1-2.8 14-2.8 9.7 0 18.2 3.5 25.2 10.5s10.5 15.5 10.5 25.4c0 9.8-3.5 18.4-10.5 25.4s-15.6 10.5-25.4 10.5zM679 693.7c-14.1 0-25.5-11.4-25.5-25.5V460.4c0-14.1 11.4-25.5 25.5-25.5s25.5 11.4 25.5 25.5v207.8c0 14.1-11.5 25.5-25.5 25.5z" fill="#376DF4" p-id="7023"></path></svg>